<mxfile host="app.diagrams.net" modified="2024-05-23T14:25:33.713Z" agent="Mozilla/5.0 (Windows NT 10.0; Win64; x64) AppleWebKit/537.36 (KHTML, like Gecko) Chrome/125.0.0.0 Safari/537.36 Edg/125.0.0.0" etag="YZSwQbilCYasHCP6OkMN" version="24.4.4" type="github">
  <diagram id="C5RBs43oDa-KdzZeNtuy" name="Page-1">
    <mxGraphModel dx="1540" dy="1753" grid="1" gridSize="10" guides="1" tooltips="1" connect="1" arrows="1" fold="1" page="1" pageScale="1" pageWidth="827" pageHeight="1169" math="0" shadow="0">
      <root>
        <mxCell id="WIyWlLk6GJQsqaUBKTNV-0" />
        <mxCell id="WIyWlLk6GJQsqaUBKTNV-1" parent="WIyWlLk6GJQsqaUBKTNV-0" />
        <mxCell id="-oPAjYRNNJExIe5txF2H-0" value="" style="edgeStyle=orthogonalEdgeStyle;rounded=0;orthogonalLoop=1;jettySize=auto;html=1;" parent="WIyWlLk6GJQsqaUBKTNV-1" target="-oPAjYRNNJExIe5txF2H-2" edge="1">
          <mxGeometry relative="1" as="geometry">
            <mxPoint x="270" y="210" as="sourcePoint" />
          </mxGeometry>
        </mxCell>
        <mxCell id="-oPAjYRNNJExIe5txF2H-1" value="" style="edgeStyle=orthogonalEdgeStyle;rounded=0;orthogonalLoop=1;jettySize=auto;html=1;" parent="WIyWlLk6GJQsqaUBKTNV-1" source="-oPAjYRNNJExIe5txF2H-2" edge="1">
          <mxGeometry relative="1" as="geometry">
            <mxPoint x="500" y="350" as="targetPoint" />
          </mxGeometry>
        </mxCell>
        <mxCell id="-oPAjYRNNJExIe5txF2H-2" value="&lt;font style=&quot;font-size: 20px;&quot;&gt;使用者輸入主題文字&lt;/font&gt;" style="shape=parallelogram;perimeter=parallelogramPerimeter;whiteSpace=wrap;html=1;fixedSize=1;strokeWidth=2;" parent="WIyWlLk6GJQsqaUBKTNV-1" vertex="1">
          <mxGeometry x="157.5" y="315" width="225" height="70" as="geometry" />
        </mxCell>
        <mxCell id="W3lS5PdpXruHgPn8EJfP-2" value="" style="edgeStyle=orthogonalEdgeStyle;rounded=0;orthogonalLoop=1;jettySize=auto;html=1;" parent="WIyWlLk6GJQsqaUBKTNV-1" source="-oPAjYRNNJExIe5txF2H-3" target="W3lS5PdpXruHgPn8EJfP-1" edge="1">
          <mxGeometry relative="1" as="geometry" />
        </mxCell>
        <mxCell id="-oPAjYRNNJExIe5txF2H-3" value="&lt;font style=&quot;font-size: 20px;&quot;&gt;分析出感情、主旨&lt;br&gt;&lt;/font&gt;" style="rounded=1;whiteSpace=wrap;html=1;absoluteArcSize=1;arcSize=14;strokeWidth=2;" parent="WIyWlLk6GJQsqaUBKTNV-1" vertex="1">
          <mxGeometry x="500" y="302.5" width="210" height="105" as="geometry" />
        </mxCell>
        <mxCell id="-oPAjYRNNJExIe5txF2H-4" value="&lt;font style=&quot;font-size: 20px;&quot;&gt;開始&lt;/font&gt;" style="strokeWidth=2;html=1;shape=mxgraph.flowchart.start_1;whiteSpace=wrap;" parent="WIyWlLk6GJQsqaUBKTNV-1" vertex="1">
          <mxGeometry x="210" y="130" width="120" height="80" as="geometry" />
        </mxCell>
        <mxCell id="W3lS5PdpXruHgPn8EJfP-5" style="edgeStyle=orthogonalEdgeStyle;rounded=0;orthogonalLoop=1;jettySize=auto;html=1;entryX=0.5;entryY=0;entryDx=0;entryDy=0;" parent="WIyWlLk6GJQsqaUBKTNV-1" source="W3lS5PdpXruHgPn8EJfP-1" target="W3lS5PdpXruHgPn8EJfP-3" edge="1">
          <mxGeometry relative="1" as="geometry">
            <Array as="points">
              <mxPoint x="887" y="470" />
              <mxPoint x="255" y="470" />
              <mxPoint x="255" y="550" />
            </Array>
          </mxGeometry>
        </mxCell>
        <mxCell id="W3lS5PdpXruHgPn8EJfP-1" value="&lt;font style=&quot;font-size: 20px;&quot;&gt;&lt;br&gt;主題文字&lt;br&gt;存進資料庫&lt;/font&gt;" style="strokeWidth=2;html=1;shape=mxgraph.flowchart.database;whiteSpace=wrap;" parent="WIyWlLk6GJQsqaUBKTNV-1" vertex="1">
          <mxGeometry x="827" y="287.5" width="140" height="135" as="geometry" />
        </mxCell>
        <mxCell id="W3lS5PdpXruHgPn8EJfP-7" value="" style="edgeStyle=orthogonalEdgeStyle;rounded=0;orthogonalLoop=1;jettySize=auto;html=1;" parent="WIyWlLk6GJQsqaUBKTNV-1" source="W3lS5PdpXruHgPn8EJfP-3" target="W3lS5PdpXruHgPn8EJfP-6" edge="1">
          <mxGeometry relative="1" as="geometry" />
        </mxCell>
        <mxCell id="W3lS5PdpXruHgPn8EJfP-3" value="&lt;font style=&quot;font-size: 20px;&quot;&gt;網頁顯示感情、主旨&lt;br&gt;&lt;/font&gt;" style="rounded=1;whiteSpace=wrap;html=1;absoluteArcSize=1;arcSize=14;strokeWidth=2;" parent="WIyWlLk6GJQsqaUBKTNV-1" vertex="1">
          <mxGeometry x="140" y="550" width="210" height="105" as="geometry" />
        </mxCell>
        <mxCell id="W3lS5PdpXruHgPn8EJfP-9" value="" style="edgeStyle=orthogonalEdgeStyle;rounded=0;orthogonalLoop=1;jettySize=auto;html=1;" parent="WIyWlLk6GJQsqaUBKTNV-1" source="W3lS5PdpXruHgPn8EJfP-6" target="W3lS5PdpXruHgPn8EJfP-8" edge="1">
          <mxGeometry relative="1" as="geometry" />
        </mxCell>
        <mxCell id="W3lS5PdpXruHgPn8EJfP-6" value="&lt;font style=&quot;font-size: 20px;&quot;&gt;使用者選取所需的情感&lt;/font&gt;" style="shape=parallelogram;perimeter=parallelogramPerimeter;whiteSpace=wrap;html=1;fixedSize=1;strokeWidth=2;" parent="WIyWlLk6GJQsqaUBKTNV-1" vertex="1">
          <mxGeometry x="120" y="750" width="250" height="80" as="geometry" />
        </mxCell>
        <mxCell id="W3lS5PdpXruHgPn8EJfP-12" style="edgeStyle=orthogonalEdgeStyle;rounded=0;orthogonalLoop=1;jettySize=auto;html=1;" parent="WIyWlLk6GJQsqaUBKTNV-1" source="W3lS5PdpXruHgPn8EJfP-8" target="W3lS5PdpXruHgPn8EJfP-11" edge="1">
          <mxGeometry relative="1" as="geometry">
            <Array as="points">
              <mxPoint x="575" y="880" />
              <mxPoint x="248" y="880" />
            </Array>
          </mxGeometry>
        </mxCell>
        <mxCell id="W3lS5PdpXruHgPn8EJfP-8" value="&lt;font style=&quot;font-size: 20px;&quot;&gt;產生出相對的音樂&lt;br&gt;&lt;/font&gt;" style="rounded=1;whiteSpace=wrap;html=1;absoluteArcSize=1;arcSize=14;strokeWidth=2;" parent="WIyWlLk6GJQsqaUBKTNV-1" vertex="1">
          <mxGeometry x="470" y="737.5" width="210" height="105" as="geometry" />
        </mxCell>
        <mxCell id="W3lS5PdpXruHgPn8EJfP-16" style="edgeStyle=orthogonalEdgeStyle;rounded=0;orthogonalLoop=1;jettySize=auto;html=1;entryX=0;entryY=0.5;entryDx=0;entryDy=0;entryPerimeter=0;" parent="WIyWlLk6GJQsqaUBKTNV-1" source="W3lS5PdpXruHgPn8EJfP-11" target="W3lS5PdpXruHgPn8EJfP-14" edge="1">
          <mxGeometry relative="1" as="geometry" />
        </mxCell>
        <mxCell id="W3lS5PdpXruHgPn8EJfP-11" value="&lt;font style=&quot;font-size: 20px;&quot;&gt;使用者選取喜歡的音樂&lt;/font&gt;" style="shape=parallelogram;perimeter=parallelogramPerimeter;whiteSpace=wrap;html=1;fixedSize=1;strokeWidth=2;" parent="WIyWlLk6GJQsqaUBKTNV-1" vertex="1">
          <mxGeometry x="122.5" y="930" width="250" height="80" as="geometry" />
        </mxCell>
        <mxCell id="W3lS5PdpXruHgPn8EJfP-14" value="&lt;font style=&quot;font-size: 20px;&quot;&gt;&lt;br&gt;音樂、情感&lt;br&gt;存進資料庫&lt;/font&gt;" style="strokeWidth=2;html=1;shape=mxgraph.flowchart.database;whiteSpace=wrap;" parent="WIyWlLk6GJQsqaUBKTNV-1" vertex="1">
          <mxGeometry x="827" y="900" width="150" height="140" as="geometry" />
        </mxCell>
        <mxCell id="LypUWU3Rk0WLIM6VNK70-0" value="&lt;font style=&quot;font-size: 36px;&quot;&gt;說書人系統&lt;/font&gt;" style="ellipse;whiteSpace=wrap;html=1;fontSize=36;" vertex="1" parent="WIyWlLk6GJQsqaUBKTNV-1">
          <mxGeometry x="2050" y="400" width="280" height="150" as="geometry" />
        </mxCell>
        <mxCell id="LypUWU3Rk0WLIM6VNK70-1" value="&lt;font style=&quot;font-size: 36px;&quot;&gt;使用者&lt;/font&gt;" style="rounded=1;whiteSpace=wrap;html=1;fontSize=36;" vertex="1" parent="WIyWlLk6GJQsqaUBKTNV-1">
          <mxGeometry x="1590" y="418.13" width="250" height="91.87" as="geometry" />
        </mxCell>
        <mxCell id="LypUWU3Rk0WLIM6VNK70-10" style="edgeStyle=orthogonalEdgeStyle;rounded=0;orthogonalLoop=1;jettySize=auto;html=1;entryX=0.429;entryY=-0.05;entryDx=0;entryDy=0;entryPerimeter=0;" edge="1" parent="WIyWlLk6GJQsqaUBKTNV-1" target="LypUWU3Rk0WLIM6VNK70-0">
          <mxGeometry relative="1" as="geometry">
            <mxPoint x="1710" y="350" as="sourcePoint" />
          </mxGeometry>
        </mxCell>
      </root>
    </mxGraphModel>
  </diagram>
</mxfile>
